<svg width="32" height="32" viewBox="0 0 32 32" fill="none" xmlns="http://www.w3.org/2000/svg">
  <!-- Main dark blue rectangle -->
  <rect x="1" y="1" width="30" height="30" rx="6" fill="#1e40af" stroke="#1e3a8a" stroke-width="1.5"/>
  
  <!-- Small white protrusions on left and right sides -->
  <!-- Left side protrusions -->
  <path d="M0 5 L1 5 L1 8 L0 8 Z" fill="white"/>
  <path d="M0 12 L1 12 L1 15 L0 15 Z" fill="white"/>
  <path d="M0 19 L1 19 L1 22 L0 22 Z" fill="white"/>
  <path d="M0 26 L1 26 L1 29 L0 29 Z" fill="white"/>
  
  <!-- Right side protrusions -->
  <path d="M31 5 L32 5 L32 8 L31 8 Z" fill="white"/>
  <path d="M31 12 L32 12 L32 15 L31 15 Z" fill="white"/>
  <path d="M31 19 L32 19 L32 22 L31 22 Z" fill="white"/>
  <path d="M31 26 L32 26 L32 29 L31 29 Z" fill="white"/>
  
  <!-- Center accent -->
  <circle cx="16" cy="16" r="6" fill="#3b82f6" opacity="0.8"/>
  <circle cx="16" cy="16" r="3" fill="white"/>
</svg>
